<?xml version="1.0" standalone="no"?>
<!DOCTYPE svg PUBLIC "-//W3C//DTD SVG 20010904//EN"
 "http://www.w3.org/TR/2001/REC-SVG-20010904/DTD/svg10.dtd">
<svg version="1.0" xmlns="http://www.w3.org/2000/svg"
 width="260.000000pt" height="260.000000pt" viewBox="0 0 260.000000 260.000000"
 preserveAspectRatio="xMidYMid meet">
<metadata>
Created by potrace 1.11, written by Peter Selinger 2001-2013
</metadata>
<g transform="translate(0.000000,260.000000) scale(0.100000,-0.100000)"
fill="#000000" stroke="none">
<path d="M75 2590 c-4 -6 -1 -24 7 -40 10 -23 17 -28 33 -24 16 5 15 1 -8 -20
-16 -15 -31 -41 -34 -61 -5 -30 -10 -35 -39 -41 -19 -3 -34 -10 -34 -15 0 -5
3 -8 7 -6 5 1 8 -2 8 -8 0 -5 -3 -9 -7 -7 -5 1 -8 -336 -8 -750 0 -727 1 -751
18 -735 28 25 54 22 50 -5 -2 -19 -9 -23 -36 -23 l-32 0 0 -427 0 -428 145 0
145 0 -2 33 c-2 32 9 107 16 115 3 2 -2 22 -10 44 -18 52 -18 115 1 291 37
337 66 511 109 635 33 94 56 126 122 164 53 29 54 31 38 49 -9 11 -22 19 -28
19 -6 0 -23 10 -39 23 l-28 22 20 55 c18 53 62 97 83 84 4 -3 7 18 6 45 -2 35
3 56 13 67 14 14 18 10 38 -44 12 -33 44 -88 72 -123 28 -35 53 -76 56 -92 3
-16 9 -24 12 -18 8 12 70 -6 84 -24 4 -6 10 -6 15 2 4 7 37 14 72 17 107 7
227 73 254 138 10 24 22 50 26 58 12 22 70 14 100 -14 44 -41 132 -96 142 -90
6 4 13 3 17 -2 15 -21 72 -43 151 -59 193 -38 202 -41 315 -124 82 -61 98 -78
174 -192 81 -122 136 -286 210 -624 12 -55 27 -119 34 -142 l12 -41 39 13 c28
10 45 11 62 3 20 -9 26 -7 43 13 13 16 16 25 8 28 -16 5 -57 43 -57 52 0 4 12
21 26 38 14 17 23 31 20 31 -4 0 -2 9 4 20 6 11 14 19 18 19 36 -6 43 20 13
50 -23 23 -18 31 21 31 l28 0 0 849 0 850 -37 -5 c-21 -3 -54 -12 -73 -19 -43
-16 -122 -6 -150 20 -14 12 -18 25 -14 42 7 25 -12 57 -27 47 -5 -3 -12 1 -15
10 -3 8 -12 12 -20 9 -9 -3 -14 2 -14 15 0 11 6 22 13 25 20 8 97 -15 97 -29
0 -7 8 -10 21 -7 18 5 19 7 5 15 -21 12 -21 28 0 28 13 0 15 7 11 30 -5 25 -3
30 12 30 10 0 24 -7 31 -15 17 -20 67 -19 79 2 8 15 13 15 36 5 14 -7 30 -12
35 -12 6 0 10 32 10 70 l0 70 -410 0 c-273 0 -410 -3 -410 -10 0 -6 -11 -15
-25 -20 -54 -21 -72 -22 -89 -5 -9 9 -16 12 -16 6 0 -18 -42 -13 -56 7 -11 15
-33 17 -206 16 -120 0 -216 -5 -253 -13 -58 -13 -82 -15 -135 -12 -14 1 -45
-3 -70 -9 -70 -17 -223 -37 -245 -32 -11 3 -25 9 -31 14 -7 5 -16 3 -23 -5 -8
-10 -27 -13 -61 -10 -38 3 -52 0 -56 -11 -8 -20 -43 -16 -50 6 -3 10 -13 22
-23 28 -21 11 -81 9 -81 -2 0 -18 -37 -5 -70 22 -32 28 -39 30 -122 30 -48 0
-90 -5 -93 -10z m1644 -74 c16 -9 57 -15 99 -15 108 0 138 -30 107 -104 -8
-20 -12 -37 -9 -37 4 0 1 -6 -5 -14 -15 -18 -83 -11 -136 14 -22 10 -53 22
-68 25 -17 3 -31 15 -37 30 -5 14 -14 25 -20 25 -5 0 -10 16 -10 35 0 33 13
47 48 54 2 1 15 -5 31 -13z m688 -12 c-3 -3 -12 -4 -19 -1 -8 3 -5 6 6 6 11 1
17 -2 13 -5z m-2155 -26 c-7 -7 -12 -8 -12 -2 0 14 12 26 19 19 2 -3 -1 -11
-7 -17z m1888 2 c0 -5 -7 -10 -15 -10 -8 0 -15 5 -15 10 0 6 7 10 15 10 8 0
15 -4 15 -10z m-668 -25 c-6 -31 -14 -36 -88 -42 -56 -4 -72 -2 -83 10 -7 9
-10 21 -6 26 10 17 67 30 125 28 49 -2 55 -4 52 -22z m-554 -74 c9 -5 25 -12
35 -15 15 -5 16 -9 7 -27 -7 -11 -10 -22 -8 -23 2 -1 14 -7 28 -13 21 -9 14
-10 -38 -7 -35 2 -68 6 -73 9 -12 8 -129 -25 -129 -37 0 -5 -4 -6 -10 -3 -5 3
-23 -1 -41 -10 -17 -9 -33 -15 -35 -12 -4 4 132 69 151 72 6 1 29 3 53 3 28 1
41 6 37 13 -4 6 -13 8 -21 5 -8 -3 -14 -1 -14 4 0 5 8 11 18 13 13 4 11 5 -5
6 -14 1 -23 -5 -23 -14 0 -8 -5 -15 -11 -15 -22 0 -4 44 21 51 36 10 38 10 58
0z m-108 -21 c-10 -7 -11 -10 -2 -10 6 0 12 -4 12 -10 0 -18 -27 -11 -32 8 -4
13 1 18 16 20 17 1 18 -1 6 -8z m-370 -15 c18 -21 5 -45 -24 -45 -26 0 -48 21
-28 28 7 2 12 10 12 18 0 18 24 18 40 -1z m37 -7 c-3 -8 -6 -5 -6 6 -1 11 2
17 5 13 3 -3 4 -12 1 -19z m270 10 c2 6 8 12 13 12 13 0 -12 -59 -28 -65 -19
-7 -34 4 -28 21 3 8 0 14 -6 14 -7 0 -3 6 8 14 14 11 21 11 27 3 6 -9 10 -9
14 1z m-155 -47 c4 -25 0 -30 -19 -34 -13 -2 -22 -2 -19 0 3 3 -6 17 -19 31
l-25 26 22 12 c30 16 55 2 60 -35z m531 -90 c-2 -6 2 -10 8 -8 20 4 67 -88 72
-142 4 -44 2 -52 -19 -66 -27 -17 -38 -19 -29 -5 3 6 1 10 -5 10 -7 0 -9 -7
-6 -16 5 -12 2 -15 -11 -10 -10 4 -7 -3 9 -19 26 -26 42 -85 39 -142 -2 -17 2
-40 8 -50 13 -26 -4 -55 -20 -33 -8 11 -12 12 -16 2 -2 -6 -9 -10 -14 -6 -5 3
-9 0 -9 -6 0 -7 -7 -10 -14 -7 -10 4 -13 1 -9 -9 3 -8 -1 -14 -11 -14 -9 0
-16 6 -16 13 -1 22 -79 97 -95 91 -8 -4 -15 -10 -15 -14 0 -4 -7 -11 -16 -14
-8 -3 -12 -2 -9 4 3 6 -3 10 -15 10 -13 0 -24 -9 -30 -25 -11 -29 -17 -31 -41
-10 -17 16 -69 12 -69 -6 0 -5 -7 -9 -16 -9 -14 0 -61 -85 -56 -102 4 -14 -6
-8 -36 20 -38 35 -84 183 -58 189 5 1 14 12 20 25 6 13 23 25 36 27 23 3 24 4
5 12 -16 6 -13 8 15 8 l35 0 -29 -23 c-28 -24 -29 -50 -1 -40 8 4 12 10 9 15
-8 13 10 11 23 -2 12 -12 37 -3 28 11 -6 10 23 22 38 14 7 -3 1 3 -12 14 -23
19 -23 20 -5 31 16 10 7 11 -46 9 -56 -3 -69 -8 -94 -33 -26 -26 -29 -27 -38
-11 -5 10 -7 29 -4 43 4 15 3 22 -3 18 -6 -3 -9 6 -8 25 1 18 7 28 13 26 9 -3
9 3 1 25 -9 24 -9 35 3 56 12 22 27 29 84 40 62 13 84 21 136 52 25 15 120 41
149 41 17 0 38 -11 56 -30 25 -26 54 -33 40 -9 -4 5 -1 9 5 9 21 0 -10 40 -33
41 -21 1 -21 1 3 9 14 4 19 8 13 9 -7 1 -13 6 -13 11 0 6 17 -1 38 -14 20 -13
36 -29 35 -35z m-71 -13 c-7 -7 -12 -8 -12 -2 0 14 12 26 19 19 2 -3 -1 -11
-7 -17z m-572 -38 c0 -22 -3 -23 -37 -14 -34 9 -29 34 7 34 23 0 30 -4 30 -20z
m92 -60 c-3 -8 -9 -20 -14 -27 -5 -7 -4 -13 4 -16 9 -4 9 -6 1 -6 -7 -1 -25
10 -40 24 -24 21 -26 26 -13 35 24 16 69 9 62 -10z m674 -136 c22 -53 23 -164
2 -196 -12 -18 -17 -41 -14 -70 2 -24 1 -37 -1 -29 -5 11 -7 11 -14 0 -5 -9
-7 6 -5 36 3 37 0 53 -12 63 -10 7 -11 11 -4 7 13 -6 17 16 5 28 -3 4 -7 17
-8 30 -1 12 -5 33 -9 47 -8 24 -8 25 9 5 16 -19 16 -19 3 5 -7 14 -11 28 -10
33 1 4 -2 7 -7 7 -21 0 -20 33 0 51 32 28 48 23 65 -17z m1184 3 c32 -16 36
-39 11 -54 -27 -17 -63 -3 -91 36 l-21 31 38 0 c21 0 49 -6 63 -13z m-2064
-86 c-4 -5 0 -11 6 -14 10 -3 8 -10 -6 -26 -11 -11 -23 -21 -27 -21 -14 0 -21
41 -9 55 13 16 45 21 36 6z m233 -66 l-1 -40 -12 45 c-13 46 -10 73 5 49 5 -8
8 -32 8 -54z m759 47 c20 -14 27 -78 10 -104 -8 -13 -18 -35 -22 -50 -7 -32
-46 -40 -47 -10 -3 116 -2 142 10 156 15 18 29 20 49 8z m1003 -23 c15 -15 20
-30 17 -50 -4 -22 -1 -28 11 -27 10 2 17 -6 19 -19 2 -13 -1 -23 -7 -23 -6 0
-11 -4 -11 -10 0 -5 -9 -19 -20 -30 -11 -11 -17 -26 -14 -35 4 -10 0 -15 -12
-15 -19 0 -57 20 -40 20 6 0 1 7 -10 15 -19 15 -19 15 1 9 17 -5 18 -4 5 8 -8
7 -15 22 -14 33 0 11 -10 29 -22 40 -33 30 -38 57 -14 83 27 29 82 30 111 1z
m-2070 -145 c26 -23 24 -40 -7 -60 -33 -22 -82 -20 -107 4 -15 15 -18 27 -12
52 7 33 7 33 57 27 28 -4 59 -14 69 -23z m316 -16 c-3 -8 -6 -5 -6 6 -1 11 2
17 5 13 3 -3 4 -12 1 -19z m363 7 c-10 -12 -7 -15 13 -20 14 -4 28 -14 31 -22
7 -18 -14 -49 -23 -34 -8 13 -61 15 -131 7 -51 -7 -54 -6 -35 9 11 8 38 20 60
26 55 14 69 19 64 23 -2 3 -32 -1 -66 -8 -35 -8 -60 -10 -58 -6 5 9 54 20 103
24 18 2 35 6 39 10 12 12 15 6 3 -9z m120 -99 c0 -5 -7 -1 -15 10 -8 10 -14
24 -14 29 0 6 6 1 14 -9 8 -11 15 -24 15 -30z m-662 -14 c-2 -23 -8 -27 -33
-27 -27 0 -30 3 -30 30 0 19 5 29 13 28 6 -2 12 2 12 7 0 7 7 7 21 0 14 -8 19
-19 17 -38z m633 21 c13 -16 12 -17 -3 -4 -10 7 -18 15 -18 17 0 8 8 3 21 -13z
m-25 -13 c17 0 19 -16 3 -26 -13 -7 -29 13 -28 36 0 10 2 11 6 3 2 -7 11 -13
19 -13z m1478 -41 c-3 -5 -13 -3 -24 3 -15 10 -16 15 -8 26 10 12 14 11 25 -4
7 -9 10 -21 7 -25z m-57 -34 c5 -17 -48 -37 -64 -24 -19 16 0 35 33 34 15 0
29 -4 31 -10z m-2020 -50 c2 -6 -3 -20 -11 -30 -12 -17 -17 -18 -39 -6 -14 7
-23 19 -20 27 8 22 63 29 70 9z m1906 -16 c-13 -13 -43 -5 -43 12 0 6 7 9 15
5 8 -3 15 0 15 6 0 9 3 9 12 0 9 -9 9 -15 1 -23z m-2146 -59 c16 -25 8 -44
-23 -59 -32 -14 -31 -14 -44 9 -8 15 -7 26 6 45 20 30 45 32 61 5z m2037 4
c10 -26 7 -31 -18 -29 -45 5 -63 29 -28 38 32 9 40 7 46 -9z m146 -63 c13 -25
2 -55 -23 -66 -18 -8 -28 -5 -49 14 -32 28 -35 47 -12 72 13 14 21 16 45 7 16
-5 34 -18 39 -27z m-140 -45 c0 -13 -7 -29 -16 -37 -29 -24 -55 10 -45 56 1 3
15 5 31 5 25 0 30 -4 30 -24z m-45 -86 c3 -5 -1 -10 -10 -10 -9 0 -13 5 -10
10 3 6 8 10 10 10 2 0 7 -4 10 -10z m37 -80 c-3 -25 -7 -28 -18 -19 -19 16
-17 37 4 42 9 3 17 5 18 6 0 0 -1 -13 -4 -29z m-2153 -79 c19 -12 -3 -51 -29
-51 -21 0 -45 34 -35 50 8 12 45 13 64 1z m2334 -96 c5 -11 -2 -14 -28 -13
-23 1 -32 5 -28 15 7 18 49 17 56 -2z m-33 -176 c0 -23 -13 -24 -35 -3 -13 13
-14 19 -4 25 18 11 39 -1 39 -22z m-2139 -49 c48 -26 7 -80 -61 -80 -63 0 -74
68 -14 81 44 10 54 10 75 -1z m2230 -241 c16 -31 -7 -71 -39 -67 -27 3 -58 48
-49 72 10 25 73 21 88 -5z"/>
<path d="M930 2348 c0 -4 4 -8 9 -8 6 0 12 4 15 8 3 5 -1 9 -9 9 -8 0 -15 -4
-15 -9z"/>
<path d="M910 2330 c0 -13 18 -22 24 -11 3 5 -1 11 -9 15 -8 3 -15 1 -15 -4z"/>
<path d="M716 2315 c-3 -8 -1 -15 4 -15 6 0 10 7 10 15 0 8 -2 15 -4 15 -2 0
-6 -7 -10 -15z"/>
<path d="M1070 2236 c0 -2 8 -10 18 -17 15 -13 16 -12 3 4 -13 16 -21 21 -21
13z"/>
<path d="M1090 2176 c0 -2 9 -6 20 -9 11 -3 18 -1 14 4 -5 9 -34 13 -34 5z"/>
<path d="M1087 2153 c-13 -12 -7 -21 21 -32 16 -7 28 -20 29 -32 2 -26 21 -49
39 -49 17 0 18 16 3 26 -8 4 -7 9 2 15 11 7 11 9 1 9 -7 0 -10 4 -7 10 3 5 -6
12 -20 16 -14 3 -30 15 -36 25 -10 20 -21 24 -32 12z"/>
<path d="M923 1983 c-7 -2 -13 -9 -13 -14 0 -6 -11 -20 -25 -32 l-25 -22 20
-25 20 -25 -6 31 c-5 28 -3 32 21 38 15 4 30 5 33 1 3 -3 1 -5 -5 -5 -5 0 -10
-7 -10 -15 0 -11 3 -12 14 -3 11 9 16 9 22 0 6 -10 16 -9 44 3 32 13 61 38 40
34 -4 -1 -15 -1 -23 1 -11 1 -10 4 5 11 14 6 5 8 -30 4 -49 -5 -50 -5 -20 9
l30 14 -40 0 c-22 0 -46 -2 -52 -5z m74 -39 c-3 -3 -12 -4 -19 -1 -8 3 -5 6 6
6 11 1 17 -2 13 -5z"/>
<path d="M1074 1974 c-7 -3 -10 -13 -7 -24 4 -16 8 -17 24 -7 34 21 20 46 -17
31z"/>
<path d="M788 1913 c7 -3 16 -2 19 1 4 3 -2 6 -13 5 -11 0 -14 -3 -6 -6z"/>
<path d="M819 1898 c0 -13 -2 -33 -3 -45 -1 -12 1 -20 6 -17 4 3 8 18 8 35 0
16 5 29 11 29 5 0 7 5 4 10 -11 18 -25 11 -26 -12z"/>
<path d="M905 1911 c-3 -5 -2 -12 3 -15 5 -3 9 1 9 9 0 17 -3 19 -12 6z"/>
<path d="M1240 1525 c0 -3 7 -19 15 -36 9 -16 13 -35 9 -41 -4 -7 -3 -8 4 -4
7 4 14 -4 18 -21 3 -15 7 -32 8 -38 2 -5 6 9 10 32 7 39 5 45 -28 78 -20 20
-36 33 -36 30z"/>
<path d="M615 1511 c-7 -13 12 -24 28 -16 6 4 5 1 -4 -7 -9 -7 -19 -24 -24
-36 -6 -20 -4 -23 11 -20 18 3 38 53 29 76 -5 14 -31 16 -40 3z"/>
<path d="M782 1343 c-7 -10 -10 -12 -7 -5 3 6 1 12 -4 12 -6 0 -11 -12 -11
-26 0 -14 -4 -22 -10 -19 -6 3 -7 -1 -4 -9 7 -19 24 -21 24 -4 0 25 54 -41 96
-117 24 -44 44 -71 44 -61 0 19 1 19 20 -2 12 -12 25 -22 30 -22 5 0 6 -7 3
-17 -4 -10 -2 -14 4 -10 17 11 23 47 8 47 -7 0 -15 3 -18 8 -2 4 -2 1 0 -6 1
-7 -2 -10 -7 -7 -6 3 -10 13 -10 21 0 10 -8 14 -22 12 -11 -2 -23 3 -25 10 -3
8 1 10 14 5 16 -6 16 -5 4 11 -10 12 -16 13 -21 6 -5 -8 -9 -6 -14 5 -9 25 3
38 22 23 10 -7 6 0 -7 14 -13 16 -20 32 -16 39 5 8 4 10 -3 5 -7 -4 -12 0 -12
10 0 10 -7 24 -15 33 -8 9 -23 26 -33 39 -16 21 -18 22 -30 5z m86 -138 c-3
-3 -9 2 -12 12 -6 14 -5 15 5 6 7 -7 10 -15 7 -18z"/>
<path d="M1750 748 c9 -7 22 -28 29 -46 21 -51 31 -47 12 5 -11 32 -23 49 -36
51 -18 2 -18 1 -5 -10z"/>
<path d="M2580 406 c-6 -8 -10 -23 -8 -33 1 -10 0 -23 -4 -28 -4 -6 2 -16 13
-23 18 -11 19 -9 19 43 0 59 -1 62 -20 41z"/>
<path d="M456 301 c-4 -5 3 -7 14 -4 23 6 26 13 6 13 -8 0 -17 -4 -20 -9z"/>
<path d="M540 270 c14 -4 21 -9 15 -9 -7 -1 -7 -4 0 -9 6 -4 19 -24 30 -46 10
-21 21 -33 23 -28 2 6 -9 32 -23 57 -19 32 -33 45 -48 44 -20 -1 -20 -2 3 -9z"/>
<path d="M2501 218 c-9 -15 -10 -23 -2 -31 31 -31 -2 -84 -48 -78 -55 7 -69
49 -26 77 30 20 24 34 -15 34 -35 0 -38 -8 -46 -125 l-7 -95 122 0 121 0 0
110 0 110 -26 0 c-14 0 -33 4 -43 9 -13 7 -20 5 -30 -11z"/>
<path d="M1914 170 c3 -14 6 -31 6 -38 0 -7 5 -10 10 -7 14 9 12 28 -6 51 -15
18 -15 18 -10 -6z"/>
<path d="M1901 70 c0 -18 28 -70 29 -53 0 6 3 19 7 29 4 11 3 15 -5 10 -6 -3
-15 2 -21 11 -8 14 -10 15 -10 3z"/>
<path d="M429 39 c-23 -19 -23 -20 -2 -10 12 6 25 16 28 21 10 16 -1 12 -26
-11z"/>
</g>
</svg>
